<?xml version="1.0" encoding="utf-8"?>
<!-- Generator: Adobe Illustrator 25.2.1, SVG Export Plug-In . SVG Version: 6.00 Build 0)  -->
<!DOCTYPE svg PUBLIC "-//W3C//DTD SVG 1.1//EN" "http://www.w3.org/Graphics/SVG/1.1/DTD/svg11.dtd" [
	<!ENTITY ns_extend "http://ns.adobe.com/Extensibility/1.0/">
	<!ENTITY ns_ai "http://ns.adobe.com/AdobeIllustrator/10.0/">
	<!ENTITY ns_graphs "http://ns.adobe.com/Graphs/1.0/">
	<!ENTITY ns_vars "http://ns.adobe.com/Variables/1.0/">
	<!ENTITY ns_imrep "http://ns.adobe.com/ImageReplacement/1.0/">
	<!ENTITY ns_sfw "http://ns.adobe.com/SaveForWeb/1.0/">
	<!ENTITY ns_custom "http://ns.adobe.com/GenericCustomNamespace/1.0/">
	<!ENTITY ns_adobe_xpath "http://ns.adobe.com/XPath/1.0/">
]>
<svg version="1.1" id="Layer_1" xmlns:x="&ns_extend;" xmlns:i="&ns_ai;" xmlns:graph="&ns_graphs;"
	 xmlns="http://www.w3.org/2000/svg" xmlns:xlink="http://www.w3.org/1999/xlink" x="0px" y="0px" viewBox="0 0 396.85 226.77"
	 style="enable-background:new 0 0 396.85 226.77;" xml:space="preserve">
<metadata>
	<sfw  xmlns="&ns_sfw;">
		<slices></slices>
		<sliceSourceBounds  bottomLeftOrigin="true" height="112.33" width="378.58" x="9.05" y="-152.45"></sliceSourceBounds>
	</sfw>
</metadata>
<linearGradient id="SVGID_1_" gradientUnits="userSpaceOnUse" x1="9.5479" y1="95.2869" x2="104.0722" y2="95.2869">
	<stop  offset="0.0222" style="stop-color:#EE4C9B"/>
	<stop  offset="0.3534" style="stop-color:#5552A3"/>
	<stop  offset="0.6441" style="stop-color:#248C99"/>
	<stop  offset="0.8605" style="stop-color:#023F39"/>
</linearGradient>
<path style="fill:url(#SVGID_1_);stroke:#FFFFFF;stroke-miterlimit:10;" d="M10.81,99.5l25.35-49.16
	c4.37-8.48,17.45-8.65,22.08-0.29l44.48,80.25c4.17,7.51-1.78,16.42-10.96,16.42H28.62c-11.75,0-16.81-13.69-7.49-20.26l8.95-6.3
	c3.37-2.37,7.83-2.98,11.8-1.62l3.57,1.23c10.97,3.77,20.93-7.33,14.79-16.49l-1.68-2.51c-5.07-7.58-17.25-7.04-21.52,0.94
	l-4.07,7.61c-0.75,1.4-1.8,2.64-3.09,3.64l0,0C19.78,120.8,5.15,110.48,10.81,99.5z"/>
<text transform="matrix(0.9825 0 0 1 116.8627 82.2468)"><tspan x="0" y="0" style="fill:#4F4F4F; font-family:'Oval_Egyptian'; font-size:50.1471px;">Asosiasi Bursa </tspan><tspan x="0" y="60.18" style="fill:#4F4F4F; font-family:'Oval_Egyptian'; font-size:50.1471px;">Kerja Indonesia</tspan></text>
</svg>
