<?xml version="1.0" encoding="utf-8"?>
<!-- Generator: Adobe Illustrator 25.2.1, SVG Export Plug-In . SVG Version: 6.00 Build 0)  -->
<!DOCTYPE svg PUBLIC "-//W3C//DTD SVG 1.1//EN" "http://www.w3.org/Graphics/SVG/1.1/DTD/svg11.dtd" [
	<!ENTITY ns_extend "http://ns.adobe.com/Extensibility/1.0/">
	<!ENTITY ns_ai "http://ns.adobe.com/AdobeIllustrator/10.0/">
	<!ENTITY ns_graphs "http://ns.adobe.com/Graphs/1.0/">
	<!ENTITY ns_vars "http://ns.adobe.com/Variables/1.0/">
	<!ENTITY ns_imrep "http://ns.adobe.com/ImageReplacement/1.0/">
	<!ENTITY ns_sfw "http://ns.adobe.com/SaveForWeb/1.0/">
	<!ENTITY ns_custom "http://ns.adobe.com/GenericCustomNamespace/1.0/">
	<!ENTITY ns_adobe_xpath "http://ns.adobe.com/XPath/1.0/">
]>
<svg version="1.1" id="Layer_1" xmlns:x="&ns_extend;" xmlns:i="&ns_ai;" xmlns:graph="&ns_graphs;"
	 xmlns="http://www.w3.org/2000/svg" xmlns:xlink="http://www.w3.org/1999/xlink" x="0px" y="0px" viewBox="0 0 226.77 226.77"
	 style="enable-background:new 0 0 226.77 226.77;" xml:space="preserve">
<metadata>
	<sfw  xmlns="&ns_sfw;">
		<slices></slices>
		<sliceSourceBounds  bottomLeftOrigin="true" height="155.1" width="226.16" x="2.98" y="-174.48"></sliceSourceBounds>
	</sfw>
</metadata>
<linearGradient id="SVGID_1_" gradientUnits="userSpaceOnUse" x1="3.4806" y1="94.6337" x2="138.7519" y2="94.6337">
	<stop  offset="0.0222" style="stop-color:#EE4C9B"/>
	<stop  offset="0.3534" style="stop-color:#5552A3"/>
	<stop  offset="0.6441" style="stop-color:#248C99"/>
	<stop  offset="0.8605" style="stop-color:#023F39"/>
</linearGradient>
<path style="fill:url(#SVGID_1_);stroke:#FFFFFF;stroke-miterlimit:10;" d="M5.29,100.48l36.27-68.33
	c6.26-11.79,24.97-12.03,31.6-0.4l63.65,111.52c5.96,10.44-2.55,22.82-15.69,22.82H30.78c-16.82,0-24.06-19.02-10.72-28.15
	l12.81-8.76c4.82-3.3,11.2-4.15,16.89-2.25l5.1,1.7c15.7,5.24,29.95-10.19,21.17-22.92l-2.41-3.49c-7.26-10.53-24.69-9.79-30.8,1.31
	L37,114.12c-1.07,1.94-2.57,3.66-4.43,5.06l0,0C18.13,130.09-2.82,115.75,5.29,100.48z"/>
<text transform="matrix(1.3129 0 0 1 110.9556 94.6337)" style="fill:#232222; font-family:'Oval_Egyptian'; font-size:89.5892px;">A</text>
<text transform="matrix(1.1778 0 0 1 152.814 94.7001)" style="fill:#232222; font-family:'Oval_Egyptian'; font-size:89.5847px;">B</text>
<text transform="matrix(1.1074 0 0 1 147.7778 156.5136)" style="fill:#232222; font-family:'Oval_Egyptian'; font-size:89.7076px;">K</text>
<text transform="matrix(1.6917 0 0 1 192.6284 156.4941)" style="fill:#232222; font-family:'Oval_Egyptian'; font-size:89.9263px;">I</text>
</svg>
